<svg width="3927" height="1982" viewBox="0 0 3927 1982" fill="none" xmlns="http://www.w3.org/2000/svg">
<rect width="3927" height="1982" fill="#EEEEF2"/>
<path d="M1346.34 1033.27C1344.13 1063.87 1332.8 1087.96 1312.36 1105.54C1292.05 1123.12 1265.22 1131.91 1231.89 1131.91C1195.43 1131.91 1166.72 1119.67 1145.76 1095.19C1124.92 1070.58 1114.51 1036.85 1114.51 994.016V976.633C1114.51 949.289 1119.33 925.201 1128.96 904.367C1138.6 883.534 1152.33 867.583 1170.17 856.516C1188.14 845.318 1208.97 839.719 1232.67 839.719C1265.48 839.719 1291.92 848.508 1311.97 866.086C1332.02 883.664 1343.61 908.339 1346.73 940.109H1288.14C1286.71 921.75 1281.57 908.469 1272.71 900.266C1263.99 891.932 1250.64 887.766 1232.67 887.766C1213.14 887.766 1198.49 894.797 1188.73 908.859C1179.09 922.792 1174.14 944.471 1173.88 973.898V995.383C1173.88 1026.11 1178.51 1048.57 1187.75 1062.77C1197.12 1076.96 1211.84 1084.05 1231.89 1084.05C1249.99 1084.05 1263.47 1079.95 1272.32 1071.75C1281.3 1063.42 1286.45 1050.59 1287.75 1033.27H1346.34ZM1372.32 1020.38C1372.32 999.419 1376.36 980.734 1384.43 964.328C1392.5 947.922 1404.09 935.227 1419.2 926.242C1434.43 917.258 1452.07 912.766 1472.12 912.766C1500.64 912.766 1523.88 921.49 1541.85 938.938C1559.95 956.385 1570.04 980.083 1572.12 1010.03L1572.52 1024.48C1572.52 1056.91 1563.47 1082.95 1545.37 1102.61C1527.27 1122.14 1502.98 1131.91 1472.52 1131.91C1442.05 1131.91 1417.7 1122.14 1399.47 1102.61C1381.37 1083.08 1372.32 1056.52 1372.32 1022.92V1020.38ZM1428.77 1024.48C1428.77 1044.54 1432.54 1059.9 1440.09 1070.58C1447.65 1081.12 1458.45 1086.4 1472.52 1086.4C1486.19 1086.4 1496.86 1081.19 1504.55 1070.77C1512.23 1060.23 1516.07 1043.43 1516.07 1020.38C1516.07 1000.72 1512.23 985.487 1504.55 974.68C1496.86 963.872 1486.06 958.469 1472.12 958.469C1458.32 958.469 1447.65 963.872 1440.09 974.68C1432.54 985.357 1428.77 1001.96 1428.77 1024.48ZM1660.21 916.672L1661.97 940.305C1676.94 921.945 1697.19 912.766 1722.71 912.766C1749.92 912.766 1768.61 923.508 1778.77 944.992C1793.61 923.508 1814.77 912.766 1842.24 912.766C1865.16 912.766 1882.22 919.471 1893.41 932.883C1904.61 946.164 1910.21 966.216 1910.21 993.039V1128H1853.57V993.234C1853.57 981.255 1851.23 972.531 1846.54 967.062C1841.85 961.464 1833.58 958.664 1821.73 958.664C1804.81 958.664 1793.09 966.737 1786.58 982.883L1786.77 1128H1730.33V993.43C1730.33 981.19 1727.92 972.336 1723.1 966.867C1718.28 961.398 1710.08 958.664 1698.49 958.664C1682.48 958.664 1670.89 965.305 1663.73 978.586V1128H1607.28V916.672H1660.21ZM2006.7 916.672L2008.45 940.305C2023.43 921.945 2043.67 912.766 2069.2 912.766C2096.41 912.766 2115.09 923.508 2125.25 944.992C2140.09 923.508 2161.25 912.766 2188.73 912.766C2211.64 912.766 2228.7 919.471 2239.9 932.883C2251.1 946.164 2256.7 966.216 2256.7 993.039V1128H2200.05V993.234C2200.05 981.255 2197.71 972.531 2193.02 967.062C2188.34 961.464 2180.07 958.664 2168.22 958.664C2151.29 958.664 2139.57 966.737 2133.06 982.883L2133.26 1128H2076.81V993.43C2076.81 981.19 2074.4 972.336 2069.59 966.867C2064.77 961.398 2056.57 958.664 2044.98 958.664C2028.96 958.664 2017.37 965.305 2010.21 978.586V1128H1953.77V916.672H2006.7ZM2397.52 1131.91C2366.53 1131.91 2341.27 1122.4 2321.73 1103.39C2302.33 1084.38 2292.63 1059.05 2292.63 1027.41V1021.95C2292.63 1000.72 2296.73 981.776 2304.94 965.109C2313.14 948.312 2324.73 935.422 2339.7 926.438C2354.81 917.323 2371.99 912.766 2391.27 912.766C2420.17 912.766 2442.89 921.88 2459.43 940.109C2476.1 958.339 2484.43 984.185 2484.43 1017.65V1040.7H2349.86C2351.68 1054.5 2357.15 1065.57 2366.27 1073.9C2375.51 1082.23 2387.16 1086.4 2401.23 1086.4C2422.97 1086.4 2439.96 1078.52 2452.2 1062.77L2479.94 1093.82C2471.47 1105.8 2460.02 1115.17 2445.56 1121.95C2431.11 1128.59 2415.09 1131.91 2397.52 1131.91ZM2391.07 958.469C2379.87 958.469 2370.76 962.245 2363.73 969.797C2356.83 977.349 2352.4 988.156 2350.45 1002.22H2428.96V997.727C2428.7 985.227 2425.32 975.591 2418.8 968.82C2412.29 961.919 2403.05 958.469 2391.07 958.469ZM2568.61 916.672L2570.37 941.086C2585.47 922.206 2605.72 912.766 2631.11 912.766C2653.51 912.766 2670.17 919.341 2681.11 932.492C2692.05 945.643 2697.65 965.305 2697.91 991.477V1128H2641.46V992.844C2641.46 980.865 2638.86 972.206 2633.65 966.867C2628.44 961.398 2619.78 958.664 2607.67 958.664C2591.79 958.664 2579.87 965.435 2571.93 978.977V1128H2515.48V916.672H2568.61ZM2808.45 864.719V916.672H2844.59V958.078H2808.45V1063.55C2808.45 1071.36 2809.95 1076.96 2812.95 1080.34C2815.94 1083.73 2821.67 1085.42 2830.13 1085.42C2836.38 1085.42 2841.92 1084.97 2846.73 1084.05V1126.83C2835.67 1130.21 2824.27 1131.91 2812.55 1131.91C2772.97 1131.91 2752.79 1111.92 2752.01 1071.95V958.078H2721.15V916.672H2752.01V864.719H2808.45ZM2867.83 1020.77C2867.83 988.352 2875.51 962.245 2890.88 942.453C2906.37 922.661 2927.2 912.766 2953.38 912.766C2976.55 912.766 2994.59 920.708 3007.48 936.594L3009.82 916.672H3060.99V1120.97C3060.99 1139.46 3056.76 1155.54 3048.3 1169.21C3039.96 1182.88 3028.18 1193.3 3012.95 1200.46C2997.71 1207.62 2979.87 1211.2 2959.43 1211.2C2943.93 1211.2 2928.83 1208.08 2914.12 1201.83C2899.4 1195.71 2888.27 1187.77 2880.72 1178L2905.72 1143.62C2919.78 1159.38 2936.84 1167.26 2956.89 1167.26C2971.86 1167.26 2983.52 1163.22 2991.85 1155.15C3000.18 1147.21 3004.35 1135.88 3004.35 1121.16V1109.84C2991.33 1124.55 2974.21 1131.91 2952.98 1131.91C2927.59 1131.91 2907.02 1122.01 2891.27 1102.22C2875.64 1082.3 2867.83 1055.93 2867.83 1023.12V1020.77ZM2924.27 1024.88C2924.27 1044.02 2928.11 1059.05 2935.8 1069.99C2943.48 1080.8 2954.03 1086.2 2967.44 1086.2C2984.62 1086.2 2996.93 1079.76 3004.35 1066.87V978C2996.8 965.109 2984.62 958.664 2967.83 958.664C2954.29 958.664 2943.61 964.198 2935.8 975.266C2928.11 986.333 2924.27 1002.87 2924.27 1024.88ZM3095.76 1020.38C3095.76 987.18 3103.11 960.943 3117.83 941.672C3132.67 922.401 3152.98 912.766 3178.77 912.766C3201.42 912.766 3219.46 921.424 3232.87 938.742L3236.58 916.672H3286.19V1209.25H3229.55V1109.84C3216.53 1124.55 3199.47 1131.91 3178.38 1131.91C3153.24 1131.91 3133.19 1122.14 3118.22 1102.61C3103.24 1083.08 3095.76 1055.67 3095.76 1020.38ZM3152.2 1024.48C3152.2 1044.67 3155.72 1060.03 3162.75 1070.58C3169.91 1081.12 3179.94 1086.4 3192.83 1086.4C3210.15 1086.4 3222.39 1079.5 3229.55 1065.7V978.391C3222.52 965.109 3210.41 958.469 3193.22 958.469C3180.2 958.469 3170.11 963.742 3162.95 974.289C3155.78 984.836 3152.2 1001.57 3152.2 1024.48ZM3390.29 1128H3333.65V828H3390.29V1128Z" fill="#1F2029"/>
<path fill-rule="evenodd" clip-rule="evenodd" d="M815.594 737.312L950.726 815.333C954.531 811.303 958.976 807.744 964.018 804.815C992.044 788.705 1027.79 798.27 1044.07 826.296C1060.18 854.323 1050.61 890.068 1022.59 906.347C1017.58 909.223 1012.33 911.281 1006.98 912.562V1068.66C1012.27 1069.95 1017.47 1071.99 1022.42 1074.84C1050.61 1091.12 1060.18 1126.86 1043.9 1154.89C1027.79 1182.92 991.876 1192.48 963.85 1176.37C958.27 1173.16 953.422 1169.17 949.363 1164.61L815.055 1242.16C816.975 1247.96 818.014 1254.16 818.014 1260.62C818.014 1292.84 791.834 1319.19 759.444 1319.19C727.055 1319.19 700.875 1293.01 700.875 1260.62C700.875 1254.86 701.702 1249.3 703.244 1244.05L568.148 1166.05C564.384 1170 560.001 1173.49 555.039 1176.37C526.845 1192.48 491.099 1182.92 474.988 1154.89C458.878 1126.86 468.443 1091.12 496.469 1074.84C501.425 1071.99 506.621 1069.94 511.909 1068.66V912.562C506.56 911.281 501.305 909.223 496.302 906.347C468.276 890.236 458.71 854.323 474.821 826.296C490.931 798.27 526.845 788.705 554.871 804.815C559.886 807.728 564.309 811.264 568.101 815.268L703.269 737.226C701.711 731.948 700.875 726.358 700.875 720.569C700.875 688.18 727.055 662 759.444 662C791.834 662 818.014 688.18 818.014 720.569C818.014 726.39 817.169 732.009 815.594 737.312ZM801.514 761.351L936.969 839.558C932.782 854.263 934.318 870.569 942.537 884.866C950.782 899.209 964.214 908.718 979.122 912.423V1068.72C978.362 1068.91 977.606 1069.11 976.854 1069.33L799.942 762.913C800.476 762.402 801 761.881 801.514 761.351ZM718.984 762.948L542.074 1069.36C541.31 1069.13 540.54 1068.93 539.767 1068.74V912.423C554.674 908.718 568.107 899.209 576.352 884.866C584.587 870.541 586.113 854.199 581.895 839.47L717.311 761.286C717.858 761.851 718.415 762.405 718.984 762.948ZM775.809 776.83L952.679 1083.17C948.72 1086.94 945.232 1091.34 942.369 1096.32C939.523 1101.27 937.478 1106.47 936.195 1111.76H582.697C581.414 1106.47 579.368 1101.28 576.52 1096.32C573.646 1091.37 570.164 1087 566.226 1083.24L743.129 776.844C748.306 778.338 753.78 779.139 759.444 779.139C765.126 779.139 770.617 778.333 775.809 776.83ZM802.758 1221.16L937.333 1143.46C936.929 1142.19 936.569 1140.91 936.251 1139.62H582.622C582.435 1140.38 582.232 1141.13 582.015 1141.88L717.25 1219.96C727.898 1208.91 742.857 1202.05 759.444 1202.05C776.622 1202.05 792.053 1209.41 802.758 1221.16Z" fill="#E535AB"/>
</svg>
