<svg width="2994" height="658" viewBox="0 0 2994 658" fill="none" xmlns="http://www.w3.org/2000/svg">
<path d="M879.344 371.273C877.13 401.872 865.802 425.961 845.359 443.539C825.047 461.117 798.224 469.906 764.891 469.906C728.432 469.906 699.721 457.667 678.758 433.188C657.924 408.578 647.508 374.854 647.508 332.016V314.633C647.508 287.289 652.326 263.201 661.961 242.367C671.596 221.534 685.333 205.583 703.172 194.516C721.141 183.318 741.974 177.719 765.672 177.719C798.484 177.719 824.917 186.508 844.969 204.086C865.021 221.664 876.609 246.339 879.734 278.109H821.141C819.708 259.75 814.565 246.469 805.711 238.266C796.987 229.932 783.641 225.766 765.672 225.766C746.141 225.766 731.492 232.797 721.727 246.859C712.091 260.792 707.143 282.471 706.883 311.898V333.383C706.883 364.112 711.505 386.573 720.75 400.766C730.125 414.958 744.839 422.055 764.891 422.055C782.99 422.055 796.466 417.953 805.32 409.75C814.305 401.417 819.448 388.591 820.75 371.273H879.344ZM905.32 358.383C905.32 337.419 909.357 318.734 917.43 302.328C925.503 285.922 937.091 273.227 952.195 264.242C967.43 255.258 985.073 250.766 1005.12 250.766C1033.64 250.766 1056.88 259.49 1074.85 276.938C1092.95 294.385 1103.04 318.083 1105.12 348.031L1105.52 362.484C1105.52 394.906 1096.47 420.948 1078.37 440.609C1060.27 460.141 1035.98 469.906 1005.52 469.906C975.047 469.906 950.698 460.141 932.469 440.609C914.37 421.078 905.32 394.516 905.32 360.922V358.383ZM961.766 362.484C961.766 382.536 965.542 397.901 973.094 408.578C980.646 419.125 991.453 424.398 1005.52 424.398C1019.19 424.398 1029.86 419.19 1037.55 408.773C1045.23 398.227 1049.07 381.43 1049.07 358.383C1049.07 338.721 1045.23 323.487 1037.55 312.68C1029.86 301.872 1019.06 296.469 1005.12 296.469C991.323 296.469 980.646 301.872 973.094 312.68C965.542 323.357 961.766 339.958 961.766 362.484ZM1193.21 254.672L1194.97 278.305C1209.94 259.945 1230.19 250.766 1255.71 250.766C1282.92 250.766 1301.61 261.508 1311.77 282.992C1326.61 261.508 1347.77 250.766 1375.24 250.766C1398.16 250.766 1415.22 257.471 1426.41 270.883C1437.61 284.164 1443.21 304.216 1443.21 331.039V466H1386.57V331.234C1386.57 319.255 1384.23 310.531 1379.54 305.062C1374.85 299.464 1366.58 296.664 1354.73 296.664C1337.81 296.664 1326.09 304.737 1319.58 320.883L1319.77 466H1263.33V331.43C1263.33 319.19 1260.92 310.336 1256.1 304.867C1251.28 299.398 1243.08 296.664 1231.49 296.664C1215.48 296.664 1203.89 303.305 1196.73 316.586V466H1140.28V254.672H1193.21ZM1539.7 254.672L1541.45 278.305C1556.43 259.945 1576.67 250.766 1602.2 250.766C1629.41 250.766 1648.09 261.508 1658.25 282.992C1673.09 261.508 1694.25 250.766 1721.73 250.766C1744.64 250.766 1761.7 257.471 1772.9 270.883C1784.1 284.164 1789.7 304.216 1789.7 331.039V466H1733.05V331.234C1733.05 319.255 1730.71 310.531 1726.02 305.062C1721.34 299.464 1713.07 296.664 1701.22 296.664C1684.29 296.664 1672.57 304.737 1666.06 320.883L1666.26 466H1609.81V331.43C1609.81 319.19 1607.4 310.336 1602.59 304.867C1597.77 299.398 1589.57 296.664 1577.98 296.664C1561.96 296.664 1550.37 303.305 1543.21 316.586V466H1486.77V254.672H1539.7ZM1930.52 469.906C1899.53 469.906 1874.27 460.401 1854.73 441.391C1835.33 422.38 1825.63 397.055 1825.63 365.414V359.945C1825.63 338.721 1829.73 319.776 1837.94 303.109C1846.14 286.312 1857.73 273.422 1872.7 264.438C1887.81 255.323 1904.99 250.766 1924.27 250.766C1953.17 250.766 1975.89 259.88 1992.43 278.109C2009.1 296.339 2017.43 322.185 2017.43 355.648V378.695H1882.86C1884.68 392.497 1890.15 403.565 1899.27 411.898C1908.51 420.232 1920.16 424.398 1934.23 424.398C1955.97 424.398 1972.96 416.521 1985.2 400.766L2012.94 431.82C2004.47 443.799 1993.02 453.174 1978.56 459.945C1964.11 466.586 1948.09 469.906 1930.52 469.906ZM1924.07 296.469C1912.87 296.469 1903.76 300.245 1896.73 307.797C1889.83 315.349 1885.4 326.156 1883.45 340.219H1961.96V335.727C1961.7 323.227 1958.32 313.591 1951.8 306.82C1945.29 299.919 1936.05 296.469 1924.07 296.469ZM2101.61 254.672L2103.37 279.086C2118.47 260.206 2138.72 250.766 2164.11 250.766C2186.51 250.766 2203.17 257.341 2214.11 270.492C2225.05 283.643 2230.65 303.305 2230.91 329.477V466H2174.46V330.844C2174.46 318.865 2171.86 310.206 2166.65 304.867C2161.44 299.398 2152.78 296.664 2140.67 296.664C2124.79 296.664 2112.87 303.435 2104.93 316.977V466H2048.48V254.672H2101.61ZM2341.45 202.719V254.672H2377.59V296.078H2341.45V401.547C2341.45 409.359 2342.95 414.958 2345.95 418.344C2348.94 421.729 2354.67 423.422 2363.13 423.422C2369.38 423.422 2374.92 422.966 2379.73 422.055V464.828C2368.67 468.214 2357.27 469.906 2345.55 469.906C2305.97 469.906 2285.79 449.919 2285.01 409.945V296.078H2254.15V254.672H2285.01V202.719H2341.45ZM2400.83 358.773C2400.83 326.352 2408.51 300.245 2423.88 280.453C2439.37 260.661 2460.2 250.766 2486.38 250.766C2509.55 250.766 2527.59 258.708 2540.48 274.594L2542.82 254.672H2593.99V458.969C2593.99 477.458 2589.76 493.539 2581.3 507.211C2572.96 520.883 2561.18 531.299 2545.95 538.461C2530.71 545.622 2512.87 549.203 2492.43 549.203C2476.93 549.203 2461.83 546.078 2447.12 539.828C2432.4 533.708 2421.27 525.766 2413.72 516L2438.72 481.625C2452.78 497.38 2469.84 505.258 2489.89 505.258C2504.86 505.258 2516.52 501.221 2524.85 493.148C2533.18 485.206 2537.35 473.878 2537.35 459.164V447.836C2524.33 462.549 2507.21 469.906 2485.98 469.906C2460.59 469.906 2440.02 460.01 2424.27 440.219C2408.64 420.297 2400.83 393.93 2400.83 361.117V358.773ZM2457.27 362.875C2457.27 382.016 2461.11 397.055 2468.8 407.992C2476.48 418.799 2487.03 424.203 2500.44 424.203C2517.62 424.203 2529.93 417.758 2537.35 404.867V316C2529.8 303.109 2517.62 296.664 2500.83 296.664C2487.29 296.664 2476.61 302.198 2468.8 313.266C2461.11 324.333 2457.27 340.87 2457.27 362.875ZM2628.76 358.383C2628.76 325.18 2636.11 298.943 2650.83 279.672C2665.67 260.401 2685.98 250.766 2711.77 250.766C2734.42 250.766 2752.46 259.424 2765.87 276.742L2769.58 254.672H2819.19V547.25H2762.55V447.836C2749.53 462.549 2732.47 469.906 2711.38 469.906C2686.24 469.906 2666.19 460.141 2651.22 440.609C2636.24 421.078 2628.76 393.669 2628.76 358.383ZM2685.2 362.484C2685.2 382.667 2688.72 398.031 2695.75 408.578C2702.91 419.125 2712.94 424.398 2725.83 424.398C2743.15 424.398 2755.39 417.497 2762.55 403.695V316.391C2755.52 303.109 2743.41 296.469 2726.22 296.469C2713.2 296.469 2703.11 301.742 2695.95 312.289C2688.78 322.836 2685.2 339.568 2685.2 362.484ZM2923.29 466H2866.65V166H2923.29V466Z" fill="#1F2029"/>
<path fill-rule="evenodd" clip-rule="evenodd" d="M348.594 75.3123L483.726 153.333C487.531 149.303 491.976 145.744 497.018 142.815C525.044 126.705 560.79 136.27 577.068 164.296C593.179 192.323 583.613 228.068 555.587 244.347C550.584 247.223 545.329 249.281 539.98 250.562V406.665C545.271 407.948 550.468 409.993 555.419 412.839C583.613 429.118 593.179 464.863 576.9 492.889C560.79 520.915 524.876 530.481 496.85 514.37C491.27 511.163 486.422 507.171 482.363 502.612L348.055 580.157C349.975 585.958 351.014 592.164 351.014 598.616C351.014 630.838 324.834 657.186 292.444 657.186C260.055 657.186 233.875 631.006 233.875 598.616C233.875 592.859 234.702 587.298 236.244 582.045L101.148 504.045C97.3836 507.996 93.0005 511.488 88.0388 514.37C59.845 530.481 24.0992 520.915 7.98838 492.889C-8.12241 464.863 1.44337 429.118 29.4694 412.839C34.4247 409.99 39.6213 407.945 44.9089 406.662V250.562C39.5601 249.281 34.3052 247.223 29.3016 244.347C1.27555 228.236 -8.29023 192.323 7.82056 164.296C23.9313 136.27 59.845 126.705 87.871 142.815C92.8857 145.728 97.3093 149.264 101.101 153.268L236.269 75.2255C234.711 69.9478 233.875 64.3578 233.875 58.5694C233.875 26.18 260.055 0 292.444 0C324.834 0 351.014 26.18 351.014 58.5694C351.014 64.3895 350.169 70.0091 348.594 75.3123ZM334.514 99.3509L469.969 177.558C465.782 192.263 467.318 208.569 475.537 222.866C483.782 237.209 497.214 246.718 512.122 250.423V406.721C511.362 406.908 510.606 407.109 509.854 407.326L332.942 100.913C333.476 100.402 334 99.8814 334.514 99.3509ZM251.984 100.948L75.0744 407.356C74.3096 407.134 73.5403 406.927 72.7672 406.736V250.423C87.6744 246.718 101.107 237.209 109.352 222.866C117.587 208.541 119.113 192.199 114.895 177.47L250.311 99.2857C250.858 99.8511 251.415 100.405 251.984 100.948ZM308.809 114.83L485.679 421.168C481.72 424.942 478.232 429.339 475.369 434.32C472.523 439.271 470.478 444.469 469.195 449.759H115.697C114.414 444.472 112.368 439.275 109.52 434.32C106.646 429.371 103.164 424.998 99.2256 421.24L276.129 114.844C281.306 116.338 286.78 117.139 292.444 117.139C298.126 117.139 303.617 116.333 308.809 114.83ZM335.758 559.158L470.333 481.459C469.929 480.191 469.569 478.91 469.251 477.618H115.622C115.435 478.377 115.232 479.132 115.015 479.884L250.25 557.964C260.898 546.914 275.857 540.047 292.444 540.047C309.622 540.047 325.053 547.41 335.758 559.158Z" fill="#E535AB"/>
</svg>
